<svg width="535" height="32" viewBox="0 0 535 32" fill="none" xmlns="http://www.w3.org/2000/svg">
<path d="M534.733 1.4111C534.733 0.823406 534.255 0.346985 533.665 0.346985H-1.19528C-1.78519 0.346985 -2.2634 0.823406 -2.2634 1.4111V16.8408H534.733V1.4111Z" fill="url(#paint0_linear_20005153_3361)"/>
<path d="M-66.3504 12.0522H62.3578C69.1417 12.0522 74.6411 6.81162 74.6411 0.346985H-78.6338C-78.6338 6.81162 -73.1343 12.0522 -66.3504 12.0522Z" fill="#ABAEB0"/>
<path d="M-66.8846 12.0522H61.8236C68.6075 12.0522 74.107 6.81162 74.107 0.346985H-79.168C-79.168 6.81162 -73.6685 12.0522 -66.8846 12.0522Z" fill="url(#paint1_linear_20005153_3361)"/>
<path fill-rule="evenodd" clip-rule="evenodd" d="M-2.79752 16.8408H-538.993C-538.993 16.8408 -515.494 31.7385 -438.323 31.7385H-2.79752H-1.7294H434.33C511.501 31.7385 535 16.8408 535 16.8408H-1.7294H-2.79752Z" fill="url(#paint2_linear_20005153_3361)"/>
<defs>
<linearGradient id="paint0_linear_20005153_3361" x1="534.733" y1="8.85918" x2="-2.26343" y2="8.85915" gradientUnits="userSpaceOnUse">
<stop stop-color="#717576"/>
<stop offset="0.016907" stop-color="#9C9FA1"/>
<stop offset="0.0353058" stop-color="#9C9FA1"/>
<stop offset="0.0571855" stop-color="#797E82"/>
<stop offset="0.0979612" stop-color="#797E82"/>
<stop offset="0.151169" stop-color="#B2B5B7"/>
<stop offset="0.756906" stop-color="#CACDCF"/>
<stop offset="1" stop-color="#CACDCF"/>
</linearGradient>
<linearGradient id="paint1_linear_20005153_3361" x1="-79.168" y1="6.19962" x2="74.107" y2="6.19962" gradientUnits="userSpaceOnUse">
<stop stop-opacity="0.5"/>
<stop offset="0.139373" stop-color="#818487" stop-opacity="0"/>
<stop offset="0.860627" stop-color="#818487" stop-opacity="0"/>
<stop offset="1" stop-opacity="0.5"/>
</linearGradient>
<linearGradient id="paint2_linear_20005153_3361" x1="-1.9964" y1="16.8408" x2="-1.9964" y2="31.7385" gradientUnits="userSpaceOnUse">
<stop stop-color="#838688"/>
<stop offset="1" stop-color="#17191B"/>
</linearGradient>
</defs>
</svg>
