<svg width="80" height="80" viewBox="0 0 80 80" fill="none" xmlns="http://www.w3.org/2000/svg">
<g filter="url(#filter0_d_20005153_3383)">
<rect x="4" width="72" height="72" rx="8" fill="#F3F6FF" shape-rendering="crispEdges"/>
<g clip-path="url(#clip0_20005153_3383)">
<path d="M56.6043 39.9511C56.2809 39.1512 55.3701 38.7646 54.5701 39.0882C53.77 39.4116 53.3836 40.3223 53.707 41.1224L55.5473 45.6744L50.0818 43.2651C49.6862 43.0907 49.236 43.088 48.8383 43.2577C46.9705 44.0546 44.9696 44.4587 42.8911 44.4587C34.5261 44.4587 28.9068 37.9091 28.9068 31.7918C28.9068 24.8073 35.1801 19.125 42.8911 19.125C50.6021 19.125 56.8755 24.8073 56.8755 31.7918C56.8755 32.3368 56.8247 32.9893 56.7363 33.5819C56.609 34.4354 57.1977 35.2305 58.0512 35.3579C58.9048 35.4855 59.6998 34.8965 59.8271 34.043C59.9389 33.2938 60.0005 32.4943 60.0005 31.7918C60.0005 27.5473 58.2031 23.5647 54.9393 20.5776C51.7142 17.6257 47.4353 16 42.8911 16C38.3469 16 34.0682 17.6257 30.8429 20.5775C27.9264 23.2469 26.182 26.7115 25.8437 30.4474C22.1751 32.8768 20.0005 36.7696 20.0005 40.9628C20.0005 43.5822 20.8258 46.0675 22.3966 48.2063L20.1144 53.8518C19.8761 54.4413 20.0188 55.1166 20.4755 55.5592C20.773 55.8478 21.1651 56 21.5633 56C21.7761 55.9999 21.9906 55.9566 22.1933 55.8672L28.7736 52.9664C30.429 53.5826 32.1787 53.8945 33.9848 53.8945C34.0239 53.8945 34.0622 53.8915 34.1006 53.8887C36.7129 53.8689 39.2525 53.1818 41.452 51.8959C43.4221 50.7441 45.0428 49.1617 46.1789 47.2931C47.2882 47.0938 48.3724 46.7929 49.4248 46.3906L57.8077 50.0859C58.0104 50.1752 58.2248 50.2188 58.4376 50.2188C58.8358 50.2187 59.228 50.0665 59.5255 49.778C59.9822 49.3353 60.1249 48.6602 59.8866 48.0706L56.6043 39.9511ZM33.985 50.7656C33.9636 50.7656 33.9429 50.7679 33.9217 50.7688C32.3262 50.7606 30.7906 50.447 29.3565 49.8352C28.9589 49.6654 28.5086 49.6681 28.113 49.8426L24.4539 51.4556L25.6343 48.5356C25.8525 47.9959 25.7524 47.3795 25.3747 46.9364C23.9033 45.2101 23.1255 43.1446 23.1255 40.9628C23.1255 38.4659 24.1759 36.1 26.0137 34.3061C26.5859 37.4253 28.2004 40.409 30.6358 42.7529C33.6663 45.6696 37.6749 47.3592 42.0034 47.5627C39.9712 49.5631 37.0631 50.7656 33.985 50.7656Z" fill="#6366F1"/>
<path d="M42.813 33.4219C43.6759 33.4219 44.3755 32.7223 44.3755 31.8594C44.3755 30.9964 43.6759 30.2969 42.813 30.2969C41.95 30.2969 41.2505 30.9964 41.2505 31.8594C41.2505 32.7223 41.95 33.4219 42.813 33.4219Z" fill="#D946EF"/>
<path d="M49.0625 33.4219C49.9254 33.4219 50.625 32.7223 50.625 31.8594C50.625 30.9964 49.9254 30.2969 49.0625 30.2969C48.1996 30.2969 47.5 30.9964 47.5 31.8594C47.5 32.7223 48.1996 33.4219 49.0625 33.4219Z" fill="#D946EF"/>
<path d="M36.563 33.4219C37.4259 33.4219 38.1255 32.7223 38.1255 31.8594C38.1255 30.9964 37.4259 30.2969 36.563 30.2969C35.7 30.2969 35.0005 30.9964 35.0005 31.8594C35.0005 32.7223 35.7 33.4219 36.563 33.4219Z" fill="#D946EF"/>
</g>
</g>
<defs>
<filter id="filter0_d_20005153_3383" x="0" y="0" width="80" height="80" filterUnits="userSpaceOnUse" color-interpolation-filters="sRGB">
<feFlood flood-opacity="0" result="BackgroundImageFix"/>
<feColorMatrix in="SourceAlpha" type="matrix" values="0 0 0 0 0 0 0 0 0 0 0 0 0 0 0 0 0 0 127 0" result="hardAlpha"/>
<feOffset dy="4"/>
<feGaussianBlur stdDeviation="2"/>
<feComposite in2="hardAlpha" operator="out"/>
<feColorMatrix type="matrix" values="0 0 0 0 0 0 0 0 0 0 0 0 0 0 0 0 0 0 0.25 0"/>
<feBlend mode="normal" in2="BackgroundImageFix" result="effect1_dropShadow_20005153_3383"/>
<feBlend mode="normal" in="SourceGraphic" in2="effect1_dropShadow_20005153_3383" result="shape"/>
</filter>
<clipPath id="clip0_20005153_3383">
<rect width="40" height="40" fill="white" transform="translate(20 16)"/>
</clipPath>
</defs>
</svg>
