<svg width="20" height="20" viewBox="0 0 20 20" fill="none" xmlns="http://www.w3.org/2000/svg">
<path d="M16.6667 6.66663H11.9901L12.9259 3.86079C13.0942 3.35413 13.0092 2.79246 12.6967 2.35913C12.3842 1.92579 11.8776 1.66663 11.3434 1.66663H10.0001C9.75258 1.66663 9.51841 1.77663 9.35925 1.96663L5.44258 6.66663H3.33341C2.41425 6.66663 1.66675 7.41413 1.66675 8.33329V15.8333C1.66675 16.7525 2.41425 17.5 3.33341 17.5H5.83342H14.4226C15.1134 17.5 15.7401 17.0658 15.9834 16.4183L18.2809 10.2925C18.3159 10.1991 18.3334 10.1 18.3334 9.99996V8.33329C18.3334 7.41413 17.5859 6.66663 16.6667 6.66663ZM3.33341 8.33329H5.00008V15.8333H3.33341V8.33329ZM16.6667 9.84913L14.4226 15.8333H6.66675V7.80163L10.3901 3.33329H11.3451L10.0434 7.23579C9.95758 7.48996 10.0009 7.76913 10.1576 7.98663C10.3142 8.20496 10.5659 8.33329 10.8334 8.33329H16.6667V9.84913Z" fill="#9397AD"/>
</svg>
