<svg width="20" height="20" viewBox="0 0 20 20" fill="none" xmlns="http://www.w3.org/2000/svg">
<path d="M10.0001 1.66663C5.40508 1.66663 1.66675 5.40496 1.66675 9.99996C1.66675 14.595 5.40508 18.3333 10.0001 18.3333C14.5951 18.3333 18.3334 14.595 18.3334 9.99996C18.3334 5.40496 14.5951 1.66663 10.0001 1.66663ZM10.0001 16.6666C6.32425 16.6666 3.33341 13.6758 3.33341 9.99996C3.33341 6.32413 6.32425 3.33329 10.0001 3.33329C13.6759 3.33329 16.6667 6.32413 16.6667 9.99996C16.6667 13.6758 13.6759 16.6666 10.0001 16.6666Z" fill="#9397AD"/>
<path d="M10.8334 5.83337H9.16675V10.345L11.9109 13.0892L13.0892 11.9109L10.8334 9.65504V5.83337Z" fill="#9397AD"/>
</svg>
