<svg width="14" height="18" viewBox="0 0 14 18" fill="none" xmlns="http://www.w3.org/2000/svg">
<path d="M7.00016 0.666748C4.70266 0.666748 2.8335 2.53591 2.8335 4.83341V7.33342H2.00016C1.081 7.33342 0.333496 8.08092 0.333496 9.00008V15.6667C0.333496 16.5859 1.081 17.3334 2.00016 17.3334H12.0002C12.9193 17.3334 13.6668 16.5859 13.6668 15.6667V9.00008C13.6668 8.08092 12.9193 7.33342 12.0002 7.33342H11.1668V4.83341C11.1668 2.53591 9.29766 0.666748 7.00016 0.666748ZM12.0002 9.00008L12.0018 15.6667H2.00016V9.00008H12.0002ZM4.50016 7.33342V4.83341C4.50016 3.45508 5.62183 2.33341 7.00016 2.33341C8.3785 2.33341 9.50016 3.45508 9.50016 4.83341V7.33342H4.50016Z" fill="#9397AD"/>
</svg>
